<svg width="113" height="134" viewBox="0 0 113 134" fill="none" xmlns="http://www.w3.org/2000/svg">
<g clip-path="url(#clip0_54_103)">
<path d="M102.664 124.96L85.0485 120.619L47.3564 73.2182L64.9711 77.5587L102.664 124.96Z" fill="#550000"/>
<path d="M63.2004 75.3308L45.5864 70.9904L58.3455 69.4196L75.9607 73.76L63.2004 75.3308Z" fill="#700000"/>
<path d="M64.9712 77.5587L47.3572 73.2183L45.5872 70.9904L63.2011 75.3309L64.9712 77.5587Z" fill="#550000"/>
<path d="M54.1803 76.4423L63.2016 75.3315L64.9717 77.5568L23.6597 134.002L17.6145 126.4L54.1803 76.4423Z" fill="#980000"/>
<path d="M75.9613 73.76L109.378 115.787L102.664 124.96L64.9717 77.5586L63.2017 75.3309L75.9613 73.76Z" fill="#980000"/>
<path d="M54.1804 76.4423L36.5652 72.1007L45.5865 70.9904L63.2017 75.3303L54.1804 76.4423Z" fill="#700000"/>
<path d="M23.6599 134L6.04524 129.658L0 122.058L17.6152 126.398L23.6599 134Z" fill="#550000"/>
<path d="M17.6152 126.398L0 122.058L36.5652 72.1019L54.1805 76.4411L17.6152 126.398Z" fill="#780000"/>
<path d="M76.4331 61.8981L58.8191 57.5583L94.5507 53.1597L112.166 57.4995L76.4331 61.8981Z" fill="#700000"/>
<path d="M67.4128 63.009L49.7976 58.6685L58.8195 57.5583L76.4335 61.8981L67.4128 63.009Z" fill="#700000"/>
<path d="M65.6416 60.7854L48.0264 56.4426L89.3401 0L106.955 4.34043L65.6416 60.7854Z" fill="#780000"/>
<path d="M106.955 4.34042L113 11.9419L76.4343 61.8993L67.4124 63.0096L65.6423 60.7824L106.955 4.34042Z" fill="#980000"/>
<path d="M67.4116 63.0096L49.7977 58.6697L48.0264 56.4426L65.6416 60.7824L67.4116 63.0096Z" fill="#550000"/>
<path d="M54.6533 64.5792L37.0381 60.2394L49.7972 58.6685L67.4124 63.009L54.6533 64.5792Z" fill="#700000"/>
<path d="M112.166 57.4995L111.693 69.3614L75.9615 73.7601L63.2024 75.3303L54.1811 76.4411L19.0015 80.7713L19.4742 68.9093L54.6533 64.5792L67.4123 63.009L76.4337 61.8981L112.166 57.4995Z" fill="#980000"/>
<path d="M19.0014 80.7688L1.38623 76.4308L1.85957 64.5695L19.4736 68.9093L19.0014 80.7688Z" fill="#630000"/>
<path d="M19.4736 68.9093L1.85962 64.5695L37.0381 60.2394L54.6533 64.5792L19.4736 68.9093Z" fill="#700000"/>
<path d="M21.2358 22.553L3.62061 18.2126L10.3344 9.03964L27.9497 13.3801L21.2358 22.553Z" fill="#780000"/>
<path d="M54.6533 64.5798L37.0393 60.2394L3.62061 18.2126L21.2358 22.553L54.6533 64.5798Z" fill="#550000"/>
<path d="M65.6404 60.783L67.4104 63.0096L54.655 64.5804L21.2351 22.553L27.9489 13.3801L65.6404 60.783Z" fill="#980000"/>
</g>
<defs>
<clipPath id="clip0_54_103">
<rect width="113" height="134" fill="white"/>
</clipPath>
</defs>
</svg>
