<svg width="0" height="0" class="hidden">
  <symbol fill="none" xmlns="http://www.w3.org/2000/svg" viewBox="0 0 24 24" id="icon-tag">
    <path d="M19 21L12 16L5 21V5C5 4.46957 5.21071 3.96086 5.58579 3.58579C5.96086 3.21071 6.46957 3 7 3H17C17.5304 3 18.0391 3.21071 18.4142 3.58579C18.7893 3.96086 19 4.46957 19 5V21Z" stroke="" stroke-width="1" stroke-linecap="round" stroke-linejoin="round"></path>
  </symbol>
  <symbol fill="none" xmlns="http://www.w3.org/2000/svg" viewBox="0 0 24 24" id="icon-category">
    <circle cx="17" cy="17" r="3" stroke="" stroke-width="1"/>
    <path d="M4 19V15C4 14.4477 4.44772 14 5 14H9C9.55228 14 10 14.4477 10 15V19C10 19.5523 9.55228 20 9 20H5C4.44772 20 4 19.5523 4 19Z" stroke="" stroke-width="1"/>
    <path d="M4 9V5C4 4.44772 4.44772 4 5 4H9C9.55228 4 10 4.44772 10 5V9C10 9.55228 9.55228 10 9 10H5C4.44772 10 4 9.55228 4 9Z" stroke="" stroke-width="1"/>
    <path d="M14 9V5C14 4.44772 14.4477 4 15 4H19C19.5523 4 20 4.44772 20 5V9C20 9.55228 19.5523 10 19 10H15C14.4477 10 14 9.55228 14 9Z" stroke="" stroke-width="1"/>
  </symbol>
  <symbol fill="none" xmlns="http://www.w3.org/2000/svg" viewBox="0 0 24 24" id="icon-user">
    <path d="M20 21V19C20 17.9391 19.5786 16.9217 18.8284 16.1716C18.0783 15.4214 17.0609 15 16 15H8C6.93913 15 5.92172 15.4214 5.17157 16.1716C4.42143 16.9217 4 17.9391 4 19V21" stroke="" stroke-width="1" stroke-linecap="round" stroke-linejoin="round"></path>
    <path d="M12 11C14.2091 11 16 9.20914 16 7C16 4.79086 14.2091 3 12 3C9.79086 3 8 4.79086 8 7C8 9.20914 9.79086 11 12 11Z" stroke="" stroke-width="1" stroke-linecap="round" stroke-linejoin="round"></path>
  </symbol>
  <symbol fill="none" xmlns="http://www.w3.org/2000/svg" viewBox="0 0 24 24" id="icon-post">
    <path d="M11 4H4C3.46957 4 2.96086 4.21071 2.58579 4.58579C2.21071 4.96086 2 5.46957 2 6V20C2 20.5304 2.21071 21.0391 2.58579 21.4142C2.96086 21.7893 3.46957 22 4 22H18C18.5304 22 19.0391 21.7893 19.4142 21.4142C19.7893 21.0391 20 20.5304 20 20V13" stroke="" stroke-width="" stroke-linecap="round" stroke-linejoin="round"></path>
    <path d="M18.5 2.50023C18.8978 2.1024 19.4374 1.87891 20 1.87891C20.5626 1.87891 21.1022 2.1024 21.5 2.50023C21.8978 2.89805 22.1213 3.43762 22.1213 4.00023C22.1213 4.56284 21.8978 5.1024 21.5 5.50023L12 15.0002L8 16.0002L9 12.0002L18.5 2.50023Z" stroke="" stroke-width="" stroke-linecap="round" stroke-linejoin="round"></path>
  </symbol>
  <symbol fill="none" xmlns="http://www.w3.org/2000/svg" viewBox="0 0 25 25" id="icon-logout">
    <path d="M9.2959 21.5586H5.2959C4.76547 21.5586 4.25676 21.3479 3.88168 20.9728C3.50661 20.5977 3.2959 20.089 3.2959 19.5586V5.55859C3.2959 5.02816 3.50661 4.51945 3.88168 4.14438C4.25676 3.76931 4.76547 3.55859 5.2959 3.55859H9.2959" stroke="" stroke-width="1" stroke-linecap="round" stroke-linejoin="round"></path>
    <path d="M16.2959 17.5586L21.2959 12.5586L16.2959 7.55859" stroke="" stroke-width="1" stroke-linecap="round" stroke-linejoin="round"></path>
    <path d="M21.2959 12.5586H9.2959" stroke="" stroke-width="1" stroke-linecap="round" stroke-linejoin="round"></path>
  </symbol>
  <symbol fill="none" xmlns="http://www.w3.org/2000/svg" viewBox="0 0 25 25" id="icon-search">
    <path d="M11 19C15.4183 19 19 15.4183 19 11C19 6.58172 15.4183 3 11 3C6.58172 3 3 6.58172 3 11C3 15.4183 6.58172 19 11 19Z" stroke="" strokeWidth="2" strokeLinejoin="round"/>
    <path d="M20.9999 21L16.6499 16.65" stroke="" strokeWidth="2" strokeLinejoin="round" />
  </symbol>
  <symbol fill="" xmlns="http://www.w3.org/2000/svg" viewBox="0 0 25 25" id="icon-chevron">
     <path d="M6.19043 9.36914L12.1904 15.3691L18.1904 9.36914" stroke="" strokeWidth="2" strokeLinecap="round"  strokeLinejoin="round" />
  </symbol>
  <symbol fill="none" xmlns="http://www.w3.org/2000/svg" viewBox="0 0 25 25" id="icon-close">
    <path d="M12.1611 22.064C17.684 22.064 22.1611 17.5868 22.1611 12.064C22.1611 6.54112 17.684 2.06396 12.1611 2.06396C6.63829 2.06396 2.16113 6.54112 2.16113 12.064C2.16113 17.5868 6.63829 22.064 12.1611 22.064Z" stroke="" stroke-width="1" stroke-linecap="round" stroke-linejoin="round"></path>
    <path d="M15.1611 9.06396L9.16113 15.064" stroke="" stroke-width="1" stroke-linecap="round" stroke-linejoin="round"></path>
    <path d="M9.16113 9.06396L15.1611 15.064" stroke="" stroke-width="1" stroke-linecap="round" stroke-linejoin="round"></path>
  </symbol>
  <symbol fill="none" xmlns="http://www.w3.org/2000/svg" viewBox="0 0 24 24" id="icon-trash">
    <path d="M3 6H5H21" stroke="" stroke-width="" stroke-linecap="round" stroke-linejoin="round"></path>
    <path d="M19 6V20C19 20.5304 18.7893 21.0391 18.4142 21.4142C18.0391 21.7893 17.5304 22 17 22H7C6.46957 22 5.96086 21.7893 5.58579 21.4142C5.21071 21.0391 5 20.5304 5 20V6M8 6V4C8 3.46957 8.21071 2.96086 8.58579 2.58579C8.96086 2.21071 9.46957 2 10 2H14C14.5304 2 15.0391 2.21071 15.4142 2.58579C15.7893 2.96086 16 3.46957 16 4V6" stroke="" stroke-width="" stroke-linecap="round" stroke-linejoin="round"></path>
    <path d="M10 11V17" stroke="" stroke-width="" stroke-linecap="round" stroke-linejoin="round"></path>
    <path d="M14 11V17" stroke="" stroke-width="" stroke-linecap="round" stroke-linejoin="round"></path>
  </symbol>

  <!--  -->
  <symbol fill="none" xmlns="http://www.w3.org/2000/svg" viewBox="0 0 19 19" id="icon-global-close">
    <path d="M1 1L18 18" stroke="white"></path>
    <path d="M18 1L1 18" stroke="white"></path>
  </symbol>
  <symbol fill="none" xmlns="http://www.w3.org/2000/svg" viewBox="0 0 24 24" id="icon-check">
    <path d="M16.4598 7L10.1839 13.3724L8.09195 11.2483L6 13.3724L10.1839 17.6207L18.5517 9.12414L16.4598 7Z" fill="white"/>
  </symbol>
  <symbol fill="none" xmlns="http://www.w3.org/2000/svg" viewBox="0 0 44 44" id="icon-chevron-down">
    <path d="M29.8705 17.0372L22 24.9077L14.1295 17.0372L11.5372 19.6295L22 30.0923L32.4628 19.6295L29.8705 17.0372Z" fill="white"></path>
  </symbol>
  <symbol fill="none" xmlns="http://www.w3.org/2000/svg" viewBox="0 0 24 24" id="icon-arrow">
    <path d="M9.41811 5.586L8.00411 7L12.2971 11.293L8.00017 11.293L8 13.293L12.2971 13.293L8.00411 17.586L9.41811 19L16.1251 12.293L9.41811 5.586Z" fill="#AA0000"></path>
  </symbol>
  <symbol fill="none" xmlns="http://www.w3.org/2000/svg" viewBox="0 0 113 134" id="logo-large-transition">
    <g clip-path="url(#clip0_54_103)">
      <path d="M102.664 124.96L85.0485 120.619L47.3564 73.2182L64.9711 77.5587L102.664 124.96Z" fill="#550000"></path>
      <path d="M63.2004 75.3308L45.5864 70.9904L58.3455 69.4196L75.9607 73.76L63.2004 75.3308Z" fill="#700000"></path>
      <path d="M64.9712 77.5587L47.3572 73.2183L45.5872 70.9904L63.2011 75.3309L64.9712 77.5587Z" fill="#550000"></path>
      <path d="M54.1803 76.4423L63.2016 75.3315L64.9717 77.5568L23.6597 134.002L17.6145 126.4L54.1803 76.4423Z" fill="#980000"></path>
      <path d="M75.9613 73.76L109.378 115.787L102.664 124.96L64.9717 77.5586L63.2017 75.3309L75.9613 73.76Z" fill="#980000"></path>
      <path d="M54.1804 76.4423L36.5652 72.1007L45.5865 70.9904L63.2017 75.3303L54.1804 76.4423Z" fill="#700000"></path>
      <path d="M23.6599 134L6.04524 129.658L0 122.058L17.6152 126.398L23.6599 134Z" fill="#550000"></path>
      <path d="M17.6152 126.398L0 122.058L36.5652 72.1019L54.1805 76.4411L17.6152 126.398Z" fill="#780000"></path>
      <path d="M76.4331 61.8981L58.8191 57.5583L94.5507 53.1597L112.166 57.4995L76.4331 61.8981Z" fill="#700000"></path>
      <path d="M67.4128 63.009L49.7976 58.6685L58.8195 57.5583L76.4335 61.8981L67.4128 63.009Z" fill="#700000"></path>
      <path d="M65.6416 60.7854L48.0264 56.4426L89.3401 0L106.955 4.34043L65.6416 60.7854Z" fill="#780000"></path>
      <path d="M106.955 4.34042L113 11.9419L76.4343 61.8993L67.4124 63.0096L65.6423 60.7824L106.955 4.34042Z" fill="#980000"></path>
      <path d="M67.4116 63.0096L49.7977 58.6697L48.0264 56.4426L65.6416 60.7824L67.4116 63.0096Z" fill="#550000"></path>
      <path d="M54.6533 64.5792L37.0381 60.2394L49.7972 58.6685L67.4124 63.009L54.6533 64.5792Z" fill="#700000"></path>
      <path d="M112.166 57.4995L111.693 69.3614L75.9615 73.7601L63.2024 75.3303L54.1811 76.4411L19.0015 80.7713L19.4742 68.9093L54.6533 64.5792L67.4123 63.009L76.4337 61.8981L112.166 57.4995Z" fill="#980000"></path>
      <path d="M19.0014 80.7688L1.38623 76.4308L1.85957 64.5695L19.4736 68.9093L19.0014 80.7688Z" fill="#630000"></path>
      <path d="M19.4736 68.9093L1.85962 64.5695L37.0381 60.2394L54.6533 64.5792L19.4736 68.9093Z" fill="#700000"></path>
      <path d="M21.2358 22.553L3.62061 18.2126L10.3344 9.03964L27.9497 13.3801L21.2358 22.553Z" fill="#780000"></path>
      <path d="M54.6533 64.5798L37.0393 60.2394L3.62061 18.2126L21.2358 22.553L54.6533 64.5798Z" fill="#550000"></path>
      <path d="M65.6404 60.783L67.4104 63.0096L54.655 64.5804L21.2351 22.553L27.9489 13.3801L65.6404 60.783Z" fill="#980000"></path>
    </g>
    <defs>
      <clipPath id="clip0_54_103">
        <rect width="113" height="134" fill="white"></rect>
      </clipPath>
    </defs>
  </symbol>
  <symbol fill="" xmlns="http://www.w3.org/2000/svg" viewBox="0 0 18 14" id="icon-check">
    <path d="M5.6 10.6L1.4 6.4L0 7.8L5.6 13.4L17.6 1.4L16.2 0L5.6 10.6Z" fill="" />
  </symbol>  
  <symbol fill="none" xmlns="http://www.w3.org/2000/svg" viewBox="0 0 24 25" id="icon-menu">
    <path d="M15 18.5H3V16.5H15V18.5ZM21 13.5H3V11.5H21V13.5ZM15 8.5H3V6.5H15V8.5Z" fill="white"></path>
  </symbol>
</svg>