<svg width="0" height="0" class="hidden">
  <symbol fill="none" xmlns="http://www.w3.org/2000/svg" viewBox="0 0 24 24" id="icon-tag">
    <path d="M19 21L12 16L5 21V5C5 4.46957 5.21071 3.96086 5.58579 3.58579C5.96086 3.21071 6.46957 3 7 3H17C17.5304 3 18.0391 3.21071 18.4142 3.58579C18.7893 3.96086 19 4.46957 19 5V21Z" stroke="" stroke-width="1" stroke-linecap="round" stroke-linejoin="round"></path>
  </symbol>
  <symbol fill="none" xmlns="http://www.w3.org/2000/svg" viewBox="0 0 24 24" id="icon-category">
    <circle cx="17" cy="17" r="3" stroke="" stroke-width="1"/>
    <path d="M4 19V15C4 14.4477 4.44772 14 5 14H9C9.55228 14 10 14.4477 10 15V19C10 19.5523 9.55228 20 9 20H5C4.44772 20 4 19.5523 4 19Z" stroke="" stroke-width="1"/>
    <path d="M4 9V5C4 4.44772 4.44772 4 5 4H9C9.55228 4 10 4.44772 10 5V9C10 9.55228 9.55228 10 9 10H5C4.44772 10 4 9.55228 4 9Z" stroke="" stroke-width="1"/>
    <path d="M14 9V5C14 4.44772 14.4477 4 15 4H19C19.5523 4 20 4.44772 20 5V9C20 9.55228 19.5523 10 19 10H15C14.4477 10 14 9.55228 14 9Z" stroke="" stroke-width="1"/>
  </symbol>
  <symbol fill="none" xmlns="http://www.w3.org/2000/svg" viewBox="0 0 24 24" id="icon-user">
    <path d="M20 21V19C20 17.9391 19.5786 16.9217 18.8284 16.1716C18.0783 15.4214 17.0609 15 16 15H8C6.93913 15 5.92172 15.4214 5.17157 16.1716C4.42143 16.9217 4 17.9391 4 19V21" stroke="" stroke-width="1" stroke-linecap="round" stroke-linejoin="round"></path>
    <path d="M12 11C14.2091 11 16 9.20914 16 7C16 4.79086 14.2091 3 12 3C9.79086 3 8 4.79086 8 7C8 9.20914 9.79086 11 12 11Z" stroke="" stroke-width="1" stroke-linecap="round" stroke-linejoin="round"></path>
  </symbol>
  <symbol fill="none" xmlns="http://www.w3.org/2000/svg" viewBox="0 0 24 24" id="icon-post">
    <path d="M11 4H4C3.46957 4 2.96086 4.21071 2.58579 4.58579C2.21071 4.96086 2 5.46957 2 6V20C2 20.5304 2.21071 21.0391 2.58579 21.4142C2.96086 21.7893 3.46957 22 4 22H18C18.5304 22 19.0391 21.7893 19.4142 21.4142C19.7893 21.0391 20 20.5304 20 20V13" stroke="" stroke-width="" stroke-linecap="round" stroke-linejoin="round"></path>
    <path d="M18.5 2.50023C18.8978 2.1024 19.4374 1.87891 20 1.87891C20.5626 1.87891 21.1022 2.1024 21.5 2.50023C21.8978 2.89805 22.1213 3.43762 22.1213 4.00023C22.1213 4.56284 21.8978 5.1024 21.5 5.50023L12 15.0002L8 16.0002L9 12.0002L18.5 2.50023Z" stroke="" stroke-width="" stroke-linecap="round" stroke-linejoin="round"></path>
  </symbol>
  <symbol fill="none" xmlns="http://www.w3.org/2000/svg" viewBox="0 0 25 25" id="icon-logout">
    <path d="M9.2959 21.5586H5.2959C4.76547 21.5586 4.25676 21.3479 3.88168 20.9728C3.50661 20.5977 3.2959 20.089 3.2959 19.5586V5.55859C3.2959 5.02816 3.50661 4.51945 3.88168 4.14438C4.25676 3.76931 4.76547 3.55859 5.2959 3.55859H9.2959" stroke="" stroke-width="1" stroke-linecap="round" stroke-linejoin="round"></path>
    <path d="M16.2959 17.5586L21.2959 12.5586L16.2959 7.55859" stroke="" stroke-width="1" stroke-linecap="round" stroke-linejoin="round"></path>
    <path d="M21.2959 12.5586H9.2959" stroke="" stroke-width="1" stroke-linecap="round" stroke-linejoin="round"></path>
  </symbol>
  <symbol fill="none" xmlns="http://www.w3.org/2000/svg" viewBox="0 0 25 25" id="icon-search">
    <path d="M11 19C15.4183 19 19 15.4183 19 11C19 6.58172 15.4183 3 11 3C6.58172 3 3 6.58172 3 11C3 15.4183 6.58172 19 11 19Z" stroke="" strokeWidth="2" strokeLinejoin="round"/>
    <path d="M20.9999 21L16.6499 16.65" stroke="" strokeWidth="2" strokeLinejoin="round" />
  </symbol>
  <symbol fill="" xmlns="http://www.w3.org/2000/svg" viewBox="0 0 25 25" id="icon-chevron">
     <path d="M6.19043 9.36914L12.1904 15.3691L18.1904 9.36914" stroke="" strokeWidth="2" strokeLinecap="round"  strokeLinejoin="round" />
  </symbol>
    <symbol fill="none" xmlns="http://www.w3.org/2000/svg" viewBox="0 0 25 25" id="icon-close">
    <path d="M12.1611 22.064C17.684 22.064 22.1611 17.5868 22.1611 12.064C22.1611 6.54112 17.684 2.06396 12.1611 2.06396C6.63829 2.06396 2.16113 6.54112 2.16113 12.064C2.16113 17.5868 6.63829 22.064 12.1611 22.064Z" stroke="" stroke-width="1" stroke-linecap="round" stroke-linejoin="round"></path>
    <path d="M15.1611 9.06396L9.16113 15.064" stroke="" stroke-width="1" stroke-linecap="round" stroke-linejoin="round"></path>
    <path d="M9.16113 9.06396L15.1611 15.064" stroke="" stroke-width="1" stroke-linecap="round" stroke-linejoin="round"></path>
  </symbol>
  <symbol fill="none" xmlns="http://www.w3.org/2000/svg" viewBox="0 0 24 24" id="icon-trash">
    <path d="M3 6H5H21" stroke="" stroke-width="" stroke-linecap="round" stroke-linejoin="round"></path>
    <path d="M19 6V20C19 20.5304 18.7893 21.0391 18.4142 21.4142C18.0391 21.7893 17.5304 22 17 22H7C6.46957 22 5.96086 21.7893 5.58579 21.4142C5.21071 21.0391 5 20.5304 5 20V6M8 6V4C8 3.46957 8.21071 2.96086 8.58579 2.58579C8.96086 2.21071 9.46957 2 10 2H14C14.5304 2 15.0391 2.21071 15.4142 2.58579C15.7893 2.96086 16 3.46957 16 4V6" stroke="" stroke-width="" stroke-linecap="round" stroke-linejoin="round"></path>
    <path d="M10 11V17" stroke="" stroke-width="" stroke-linecap="round" stroke-linejoin="round"></path>
    <path d="M14 11V17" stroke="" stroke-width="" stroke-linecap="round" stroke-linejoin="round"></path>
  </symbol>
</svg>